PathFileType	4	(X/Y/Z)	C:\Users\Graham\Documents\MATLAB\MOtoNMS_v2_2\MyData\ElaboratedData\S1\17-05-18\dynamicElaborations\rightStSt\\NE2\NE2.trc
DataRate	CameraRate	NumFrames	NumMarkers	Units	OrigDataRate	DataStartFrame
100	100	11	29	mm	100	4
Frame#	Time	V_Sacral			R_ASIS			L_ASIS			R_Knee_Lat			R_Thigh_Upper			R_Thigh_Front			R_Thigh_Rear			L_Knee_Lat			L_Thigh_Upper			L_Thigh_Front			L_Thigh_Rear			R_Ankle_Lat			R_Shank_Upper			R_Shank_Front			R_Shank_Rear			L_Ankle_Lat			L_Shank_Upper			L_Shank_Front			L_Shank_Rear			R_Heel			R_MTP1			R_MTP5			L_Heel			L_MTP1			L_MTP5			Clavicle			C7			R_Acromium			L_Acromium		
		X1	Y1	Z1	X2	Y2	Z2	X3	Y3	Z3	X4	Y4	Z4	X5	Y5	Z5	X6	Y6	Z6	X7	Y7	Z7	X8	Y8	Z8	X9	Y9	Z9	X10	Y10	Z10	X11	Y11	Z11	X12	Y12	Z12	X13	Y13	Z13	X14	Y14	Z14	X15	Y15	Z15	X16	Y16	Z16	X17	Y17	Z17	X18	Y18	Z18	X19	Y19	Z19	X20	Y20	Z20	X21	Y21	Z21	X22	Y22	Z22	X23	Y23	Z23	X24	Y24	Z24	X25	Y25	Z25	X26	Y26	Z26	X27	Y27	Z27	X28	Y28	Z28	X29	Y29	Z29	

79	0.780000	-72.528292	1041.368139	22.478275	124.873753	1013.920967	151.151337	128.888271	1027.934602	-80.141808	11.771324	512.991634	208.503200	124.766578	852.689731	190.450370	144.447524	728.496801	160.285044	88.496006	726.813393	215.229923	204.734445	538.543896	-117.120782	190.080658	876.155863	-99.552157	225.660389	765.252309	-48.248705	207.118464	754.061788	-131.170037	-267.040129	187.147259	198.800684	-78.360156	313.828655	186.265504	-168.510971	248.109723	125.878544	-181.100309	247.271561	206.410899	181.848862	98.799503	-112.584596	249.416343	326.528971	-83.822439	217.844399	211.424649	-38.020588	217.026446	211.891865	-119.445960	-358.443328	193.154163	145.480764	-186.748761	56.664355	110.196664	-197.513355	51.215288	179.518607	107.090035	57.775844	-67.657688	340.923039	62.060571	-34.300046	324.851007	54.785431	-121.794598	144.808497	1439.921533	20.194566	7.498519	1552.280595	6.607176	87.168653	1475.605173	211.449929	94.167493	1465.001387	-194.084184	
80	0.790000	-72.297818	1042.042048	20.573114	124.499679	1014.986754	149.586181	129.361150	1028.560997	-81.598699	22.129817	513.017179	209.055947	127.016359	854.396867	189.303994	150.560933	730.746472	160.616044	94.108387	727.881814	215.406463	201.411925	538.023067	-118.220154	190.318582	876.047290	-101.615216	225.145899	764.976652	-50.232453	206.094585	753.785114	-133.061613	-264.075064	194.826943	198.724843	-72.310940	316.098978	186.793369	-163.724999	252.763841	125.739876	-177.084797	252.557185	206.306284	172.417949	98.591071	-112.492598	243.312553	325.362120	-84.784368	210.421532	210.804406	-38.512661	209.149723	211.115049	-119.967249	-353.974809	207.145489	144.566882	-191.016835	59.315902	110.099999	-203.002810	54.262201	179.765877	97.692743	57.686883	-67.668060	331.711114	61.717490	-34.372769	315.622401	54.472581	-121.673820	144.799856	1441.010682	18.035443	7.318552	1553.028840	3.725445	86.335734	1477.044525	208.997353	95.026857	1465.684935	-196.470308	
81	0.800000	-72.271243	1042.731488	18.759196	123.972714	1016.024887	148.213686	129.647660	1029.124725	-82.901806	32.410706	513.251216	209.414133	129.044670	856.156899	188.458178	156.511117	733.193479	161.231732	99.385359	729.093140	215.746268	197.513614	537.477076	-119.431431	190.194496	875.801445	-103.668777	224.226599	764.531552	-52.239562	204.565710	753.388155	-134.942930	-260.753647	202.822653	198.573291	-65.925729	318.634374	186.946276	-158.758138	257.813763	125.463256	-172.518297	258.044287	206.031275	162.962377	98.394225	-112.471592	236.889753	324.262258	-85.952493	202.870485	210.261935	-39.117329	201.011651	210.387181	-120.601829	-348.814581	221.027423	143.514826	-194.344774	62.772019	109.938321	-207.694250	58.180484	180.155300	88.279360	57.614380	-67.698624	322.430460	61.412029	-34.499481	306.352660	54.137347	-121.631073	144.703086	1442.046040	16.076506	7.072147	1553.778135	0.998235	85.356147	1478.392139	206.727295	95.890679	1466.290564	-198.673377	
82	0.810000	-72.412777	1043.457280	17.040618	123.337063	1017.074494	147.028994	129.828478	1029.673179	-84.053963	42.494438	513.772065	209.608732	130.853747	857.995639	187.887541	162.130011	735.818315	162.027410	104.248953	730.466632	216.178506	193.136682	536.916219	-120.717557	189.693335	875.436759	-105.635981	222.857270	763.912804	-54.200902	202.616706	752.906288	-136.771761	-257.123976	211.005475	198.283985	-59.292130	321.475429	186.751700	-153.629522	263.209246	125.071867	-167.480292	263.708040	205.591436	153.501961	98.213366	-112.516933	230.209649	323.229797	-87.231425	195.167140	209.792046	-39.792748	192.712419	209.704892	-121.298913	-343.180698	234.394178	142.293644	-196.559615	66.977487	109.656732	-211.271584	62.904272	180.638737	78.858659	57.560779	-67.742892	313.102816	61.128868	-34.670856	297.047794	53.782991	-121.659105	144.516206	1443.030445	14.319103	6.763251	1554.539748	-1.562550	84.245259	1479.644835	204.645791	96.741725	1466.818065	-200.684646	
83	0.820000	-72.681408	1044.243115	15.421876	122.636152	1018.177732	146.006160	129.971393	1030.250342	-85.075479	52.299597	514.648933	209.692088	132.468770	859.947228	187.530206	167.294788	738.601267	162.879062	108.681794	732.023679	216.630233	188.375728	536.350004	-122.030676	188.826701	874.986257	-107.450113	221.022998	763.133883	-56.058261	200.349860	752.390404	-138.513980	-253.163595	219.189242	197.806674	-52.467131	324.634417	186.287948	-148.290444	268.836996	124.597098	-162.030206	269.490608	205.012255	144.043301	98.050951	-112.614249	223.321219	322.262343	-88.514116	187.278648	209.383414	-40.494395	184.333144	209.065750	-122.002423	-337.261126	246.817217	140.906278	-197.457517	71.824629	109.216181	-213.362936	68.296146	181.141037	69.430395	57.526104	-67.794552	303.742051	60.861820	-34.864626	287.708608	53.424930	-121.738132	144.236805	1443.979461	12.757576	6.393047	1555.326873	-3.951944	83.015271	1480.816066	202.751880	97.560162	1467.284650	-202.503150	
84	0.830000	-73.037717	1045.111082	13.910169	121.906422	1019.371088	145.104006	130.108425	1030.883966	-86.000331	61.778675	515.928711	209.722111	133.935086	862.047214	187.300643	171.950064	741.529646	163.659178	112.729377	733.786237	217.037490	183.309721	535.787713	-123.321388	187.632626	874.489198	-109.065729	218.747860	762.226661	-57.768982	197.863893	751.895415	-140.141516	-248.792009	227.144403	197.113023	-45.477824	328.081437	185.662154	-142.647692	274.527825	124.068412	-156.204240	275.290762	204.331482	134.583994	97.908157	-112.744271	216.258134	321.356635	-89.709651	179.181097	209.022010	-41.187865	175.923657	208.470187	-122.666361	-331.190695	257.894482	139.390435	-196.820588	77.154415	108.605205	-213.600304	74.154053	181.570320	59.989036	57.509767	-67.848404	294.355827	60.608670	-35.053841	278.333909	53.080843	-121.843879	143.862744	1444.918410	11.379808	5.960483	1556.152211	-6.171135	81.676109	1481.931812	201.038599	98.324058	1467.721601	-204.135814	
85	0.840000	-73.449449	1046.077427	12.515835	121.172742	1020.678461	144.274300	130.227055	1031.579488	-86.869805	70.909945	517.626511	209.747023	135.310783	864.324743	187.107074	176.111740	744.600155	164.253042	116.490183	735.774737	217.354318	177.994228	535.238422	-124.545973	186.170911	873.982325	-110.465953	216.096304	761.239348	-59.308691	195.236750	751.466959	-141.632122	-243.893514	234.618683	196.202486	-38.325071	331.739422	184.982798	-136.592661	280.076603	123.505297	-150.013405	280.962353	203.589502	125.117338	97.786254	-112.886833	209.039863	320.510067	-90.762028	170.872968	208.694939	-41.854979	167.499147	207.921988	-123.262769	-325.033528	267.298827	137.808837	-194.446003	82.757930	107.841513	-211.689501	80.222555	181.835649	50.527623	57.511439	-67.900057	284.947714	60.367733	-35.214346	268.923022	52.764086	-121.954236	143.393103	1445.878004	10.168088	5.463368	1557.025995	-8.225977	80.237296	1483.024908	199.494377	99.010496	1468.169214	-205.596685	
86	0.850000	-73.894974	1047.149305	11.250633	120.446202	1022.107263	143.470514	130.279098	1032.322562	-87.724594	79.688381	519.722505	209.794587	136.654498	866.795146	186.868148	179.851374	747.815193	164.572484	120.094407	738.005219	217.556909	172.460256	534.710688	-125.670355	184.514378	873.493357	-111.664458	213.166934	760.231951	-60.672415	192.514851	751.129947	-142.971325	-238.344585	241.360469	195.102550	-30.988971	335.489754	184.334675	-130.028368	285.270208	122.913530	-143.443386	286.323450	202.820558	115.636645	97.687695	-113.023503	201.675815	319.721441	-91.655074	162.380311	208.393594	-42.491894	159.046332	207.427342	-123.781384	-318.776132	274.812896	136.232548	-190.180972	88.382364	106.965305	-207.469354	86.209799	181.867507	41.041008	57.531193	-67.945042	275.519214	60.136309	-35.329889	259.477267	52.480830	-122.053157	142.829280	1446.889046	9.100339	4.899816	1557.954498	-10.125258	78.709870	1484.128823	198.104499	99.597556	1468.670769	-206.905370	
87	0.860000	-74.364267	1048.323114	10.124467	119.724468	1023.648012	142.655543	130.203217	1033.088218	-88.596855	88.118001	522.165715	209.868191	138.010790	869.454603	186.524554	183.267420	751.175216	164.564549	123.675325	740.485623	217.641639	166.719128	534.212020	-126.671033	182.737283	873.037945	-112.701756	210.078760	759.268870	-61.873653	189.709881	750.881981	-144.155192	-232.039553	247.141665	193.863371	-23.435802	339.187473	183.762872	-122.888768	289.916432	122.286619	-136.457618	291.175179	202.047116	106.138402	97.616204	-113.139019	194.171024	318.990816	-92.404111	153.752374	208.115140	-43.101341	150.536624	206.992936	-124.223879	-312.335170	280.341596	134.723619	-183.953234	93.747071	106.028964	-200.941086	91.812046	181.634289	31.527916	57.569217	-67.978118	266.071315	59.910734	-35.394316	250.000391	52.230273	-122.131657	142.176086	1447.976832	8.151921	4.269743	1558.938995	-11.879175	77.107605	1485.271865	196.852469	100.067087	1469.266320	-208.084843	
88	0.870000	-74.857568	1049.584635	9.141723	118.994367	1025.277063	141.807076	129.951427	1033.852027	-89.503880	96.206831	524.883288	209.949940	139.397654	872.278486	186.043608	186.453597	754.670863	164.213658	127.339688	743.211716	217.617943	160.771205	533.748219	-127.534213	180.903200	872.619762	-113.636475	206.950819	758.408115	-62.940763	186.802962	750.693338	-145.191868	-224.909152	251.777484	192.548285	-15.626252	342.682399	183.268914	-115.148098	293.866856	121.611842	-129.004502	295.326447	201.278503	96.623840	97.575771	-113.222049	186.531555	318.318653	-93.039644	145.049561	207.861953	-43.683419	141.941701	206.623757	-124.596781	-305.579833	283.900404	133.323321	-175.786661	98.571905	105.086983	-192.258318	96.744997	181.148949	21.991637	57.625371	-67.993387	256.605489	59.687384	-35.410975	240.498225	52.006768	-122.186702	141.442656	1449.156058	7.298079	3.576165	1559.975217	-13.498258	75.447208	1486.472662	195.721237	100.407853	1469.987053	-209.158794	
89	0.880000	-75.382304	1050.910858	8.298500	118.235968	1026.961433	140.919846	129.508737	1034.598268	-90.444898	103.964246	527.792313	210.008789	140.801017	875.224317	185.417474	189.474300	758.278304	163.537480	131.144047	746.163557	217.498962	154.615474	533.322759	-128.254453	179.055191	872.232462	-114.533280	203.878523	757.688268	-63.910592	183.754864	750.513531	-146.100378	-216.928666	255.140719	191.222955	-7.524191	345.840988	182.818487	-106.820698	297.028874	120.878594	-121.028189	298.618875	200.513606	87.098878	97.568982	-113.265623	178.768097	317.704711	-93.590449	136.328150	207.639390	-44.229519	133.246583	206.321217	-124.906091	-298.363309	285.584975	132.049519	-165.796122	102.613218	104.187853	-181.681669	100.776816	180.463973	12.439474	57.698831	-67.985383	247.124246	59.463871	-35.390017	230.977989	51.802585	-122.219140	140.642793	1450.427133	6.516804	2.825963	1561.053307	-14.992791	73.747493	1487.737413	194.694327	100.618402	1470.850890	-210.148777	
